<mxfile host="app.diagrams.net" modified="2024-02-27T20:00:12.000Z" agent="Mozilla/5.0 (Windows NT 10.0; Win64; x64) AppleWebKit/537.36 (KHTML, like Gecko) Chrome/121.0.0.0 Safari/537.36" etag="QRWlCVa4VMwGbtdfdNsI" version="23.1.7" type="onedrive">
  <diagram name="Page-1" id="6g7pFV2eVfMPHcUgm9A7">
    <mxGraphModel grid="1" page="1" gridSize="10" guides="1" tooltips="1" connect="1" arrows="1" fold="1" pageScale="1" pageWidth="827" pageHeight="1169" math="0" shadow="0">
      <root>
        <mxCell id="0" />
        <mxCell id="1" parent="0" />
        <mxCell id="OopK6zG3q_gzYBTuyFCd-7" style="edgeStyle=orthogonalEdgeStyle;rounded=0;orthogonalLoop=1;jettySize=auto;html=1;exitX=1;exitY=0.5;exitDx=0;exitDy=0;entryX=0;entryY=0.5;entryDx=0;entryDy=0;" edge="1" parent="1" source="OopK6zG3q_gzYBTuyFCd-1" target="OopK6zG3q_gzYBTuyFCd-3">
          <mxGeometry relative="1" as="geometry" />
        </mxCell>
        <mxCell id="OopK6zG3q_gzYBTuyFCd-1" value="&lt;font size=&quot;1&quot; face=&quot;Verdana&quot;&gt;&lt;b style=&quot;font-size: 20px;&quot;&gt;Ordinateur&lt;/b&gt;&lt;/font&gt;" style="rounded=0;whiteSpace=wrap;html=1;" vertex="1" parent="1">
          <mxGeometry x="200" y="80" width="160" height="120" as="geometry" />
        </mxCell>
        <mxCell id="OopK6zG3q_gzYBTuyFCd-6" style="edgeStyle=orthogonalEdgeStyle;rounded=0;orthogonalLoop=1;jettySize=auto;html=1;exitX=1;exitY=0.5;exitDx=0;exitDy=0;entryX=0;entryY=0.5;entryDx=0;entryDy=0;" edge="1" parent="1" source="OopK6zG3q_gzYBTuyFCd-2" target="OopK6zG3q_gzYBTuyFCd-1">
          <mxGeometry relative="1" as="geometry" />
        </mxCell>
        <mxCell id="OopK6zG3q_gzYBTuyFCd-2" value="&lt;font style=&quot;font-size: 20px;&quot; face=&quot;Verdana&quot;&gt;&lt;b&gt;Caméra&lt;/b&gt;&lt;/font&gt;" style="rounded=0;whiteSpace=wrap;html=1;" vertex="1" parent="1">
          <mxGeometry y="80" width="120" height="120" as="geometry" />
        </mxCell>
        <mxCell id="OopK6zG3q_gzYBTuyFCd-8" style="edgeStyle=orthogonalEdgeStyle;rounded=0;orthogonalLoop=1;jettySize=auto;html=1;exitX=1;exitY=0.5;exitDx=0;exitDy=0;entryX=0;entryY=0.5;entryDx=0;entryDy=0;" edge="1" parent="1" source="OopK6zG3q_gzYBTuyFCd-3" target="OopK6zG3q_gzYBTuyFCd-4">
          <mxGeometry relative="1" as="geometry" />
        </mxCell>
        <mxCell id="OopK6zG3q_gzYBTuyFCd-3" value="&lt;font size=&quot;1&quot; face=&quot;Verdana&quot;&gt;&lt;b style=&quot;font-size: 20px;&quot;&gt;Transformation de l&#39;image&lt;/b&gt;&lt;/font&gt;" style="rounded=0;whiteSpace=wrap;html=1;" vertex="1" parent="1">
          <mxGeometry x="400" y="80" width="200" height="120" as="geometry" />
        </mxCell>
        <mxCell id="OopK6zG3q_gzYBTuyFCd-10" style="edgeStyle=orthogonalEdgeStyle;rounded=0;orthogonalLoop=1;jettySize=auto;html=1;exitX=0.5;exitY=1;exitDx=0;exitDy=0;entryX=0.5;entryY=0;entryDx=0;entryDy=0;" edge="1" parent="1" source="OopK6zG3q_gzYBTuyFCd-4" target="OopK6zG3q_gzYBTuyFCd-9">
          <mxGeometry relative="1" as="geometry" />
        </mxCell>
        <mxCell id="OopK6zG3q_gzYBTuyFCd-4" value="&lt;b&gt;&lt;font style=&quot;font-size: 20px;&quot; face=&quot;Verdana&quot;&gt;Positionnement de points sur les articulations&lt;/font&gt;&lt;/b&gt;" style="rounded=0;whiteSpace=wrap;html=1;" vertex="1" parent="1">
          <mxGeometry x="640" y="80" width="180" height="120" as="geometry" />
        </mxCell>
        <mxCell id="OopK6zG3q_gzYBTuyFCd-12" style="edgeStyle=orthogonalEdgeStyle;rounded=0;orthogonalLoop=1;jettySize=auto;html=1;exitX=0;exitY=0.5;exitDx=0;exitDy=0;" edge="1" parent="1" source="OopK6zG3q_gzYBTuyFCd-9" target="OopK6zG3q_gzYBTuyFCd-11">
          <mxGeometry relative="1" as="geometry" />
        </mxCell>
        <mxCell id="OopK6zG3q_gzYBTuyFCd-9" value="&lt;font size=&quot;1&quot; face=&quot;Verdana&quot;&gt;&lt;b style=&quot;font-size: 20px;&quot;&gt;Calculs des angles entres les membres formés par les points&lt;/b&gt;&lt;/font&gt;" style="rounded=0;whiteSpace=wrap;html=1;" vertex="1" parent="1">
          <mxGeometry x="640" y="240" width="180" height="120" as="geometry" />
        </mxCell>
        <mxCell id="OopK6zG3q_gzYBTuyFCd-14" style="edgeStyle=orthogonalEdgeStyle;rounded=0;orthogonalLoop=1;jettySize=auto;html=1;exitX=0;exitY=0.5;exitDx=0;exitDy=0;" edge="1" parent="1" source="OopK6zG3q_gzYBTuyFCd-11" target="OopK6zG3q_gzYBTuyFCd-13">
          <mxGeometry relative="1" as="geometry" />
        </mxCell>
        <mxCell id="OopK6zG3q_gzYBTuyFCd-16" style="edgeStyle=orthogonalEdgeStyle;rounded=0;orthogonalLoop=1;jettySize=auto;html=1;exitX=0.5;exitY=1;exitDx=0;exitDy=0;entryX=0.5;entryY=0;entryDx=0;entryDy=0;" edge="1" parent="1" source="OopK6zG3q_gzYBTuyFCd-11" target="OopK6zG3q_gzYBTuyFCd-15">
          <mxGeometry relative="1" as="geometry" />
        </mxCell>
        <mxCell id="OopK6zG3q_gzYBTuyFCd-11" value="&lt;font style=&quot;font-size: 20px;&quot; face=&quot;Verdana&quot;&gt;&lt;b&gt;Détection de mouvements spécifiques&lt;/b&gt;&lt;/font&gt;" style="rounded=0;whiteSpace=wrap;html=1;" vertex="1" parent="1">
          <mxGeometry x="400" y="240" width="200" height="120" as="geometry" />
        </mxCell>
        <mxCell id="OopK6zG3q_gzYBTuyFCd-13" value="&lt;font size=&quot;1&quot; face=&quot;Verdana&quot;&gt;&lt;b style=&quot;font-size: 20px;&quot;&gt;Retour de l&#39;image avec les points, les angles et les conteurs de chaque mouvement spécifique&lt;/b&gt;&lt;/font&gt;" style="rounded=0;whiteSpace=wrap;html=1;" vertex="1" parent="1">
          <mxGeometry x="100" y="240" width="260" height="120" as="geometry" />
        </mxCell>
        <mxCell id="OopK6zG3q_gzYBTuyFCd-15" value="&lt;font size=&quot;1&quot; style=&quot;&quot; face=&quot;Verdana&quot;&gt;&lt;b style=&quot;font-size: 20px;&quot;&gt;Envoi les mouvements spécifiques complétés au Arduino&lt;/b&gt;&lt;/font&gt;" style="rounded=0;whiteSpace=wrap;html=1;" vertex="1" parent="1">
          <mxGeometry x="400" y="400" width="200" height="120" as="geometry" />
        </mxCell>
      </root>
    </mxGraphModel>
  </diagram>
</mxfile>
